<?xml version="1.0" encoding="UTF-8"?>
<svg width="31px" height="31px" viewBox="0 0 31 31" version="1.1" xmlns="http://www.w3.org/2000/svg" xmlns:xlink="http://www.w3.org/1999/xlink">
    <title>Tab Bar Unselected 4</title>
    <g id="Seedling" stroke="none" stroke-width="1" fill="none" fill-rule="evenodd">
        <g id="Tab-Bar-Unselected" transform="translate(-214.000000, -10.000000)" fill="#000000">
            <path d="M234.744459,10 C238.310534,10 239.603679,10.3713024 240.907383,11.0685308 C242.211087,11.7657592 243.234241,12.7889135 243.931469,14.0926172 C244.628698,15.3963209 245,16.6894658 245,20.2555408 L245,30.7444592 C245,34.3105342 244.628698,35.6036791 243.931469,36.9073828 C243.234241,38.2110865 242.211087,39.2342408 240.907383,39.9314692 C239.603679,40.6286976 238.310534,41 234.744459,41 L224.255541,41 C220.689466,41 219.396321,40.6286976 218.092617,39.9314692 C216.788913,39.2342408 215.765759,38.2110865 215.068531,36.9073828 C214.371302,35.6036791 214,34.3105342 214,30.7444592 L214,20.2555408 C214,16.6894658 214.371302,15.3963209 215.068531,14.0926172 C215.765759,12.7889135 216.788913,11.7657592 218.092617,11.0685308 C219.396321,10.3713024 220.689466,10 224.255541,10 L234.744459,10 Z M230.869146,13.4799347 L228.568747,13.4799347 C228.126364,13.4799347 227.746443,13.6064148 227.428984,13.859375 C227.111525,14.1123352 226.900335,14.4538269 226.795416,14.8838501 L226.318609,16.9373322 L225.896597,17.0927887 L224.109945,15.9874268 C223.733664,15.7567139 223.3431,15.666008 222.938254,15.7153091 C222.533407,15.7646103 222.176672,15.947052 221.868048,16.2626343 L220.274069,17.8549652 C219.952627,18.1785126 219.767782,18.5409698 219.719534,18.942337 C219.671286,19.3437042 219.766043,19.7319794 220.003805,20.1071625 L221.123449,21.8906555 L220.967993,22.2879486 L218.933737,22.7823334 C218.501516,22.8846893 218.160277,23.0957642 217.910017,23.4155579 C217.659758,23.7353516 217.534628,24.115387 217.534628,24.5556641 L217.534628,26.7992096 C217.534628,27.2394867 217.661474,27.6197968 217.915167,27.9401398 C218.16886,28.2604828 218.508383,28.4736633 218.933737,28.5796814 L220.983923,29.058136 L221.130728,29.4410095 L220.010946,31.2316437 C219.773275,31.6009674 219.678816,31.9878006 219.727568,32.3921432 C219.77632,32.7964859 219.960867,33.1580048 220.28121,33.4766998 L221.875326,35.0675201 C222.189718,35.3841095 222.549338,35.5682678 222.954184,35.6199951 C223.35903,35.6717224 223.749594,35.5768738 224.125876,35.3354492 L225.912527,34.2300873 L226.318609,34.369751 L226.795416,36.4302368 C226.900335,36.8614502 227.111525,37.2032394 227.428984,37.4556046 C227.746443,37.7079697 228.126364,37.8341522 228.568747,37.8341522 L230.869146,37.8341522 C231.311529,37.8341522 231.69264,37.7079697 232.01248,37.4556046 C232.332319,37.2032394 232.542318,36.8614502 232.642477,36.4302368 L233.120932,34.369751 L233.518088,34.2300873 L235.312018,35.3354492 C235.689306,35.5768738 236.079184,35.6717224 236.48165,35.6199951 C236.884115,35.5682678 237.24497,35.3841095 237.564215,35.0675201 L239.151053,33.4766998 C239.471396,33.1580048 239.656881,32.7964859 239.70751,32.3921432 C239.758139,31.9878006 239.665121,31.6009674 239.428457,31.2316437 L238.308813,29.4410095 L238.44834,29.058136 L240.504156,28.5796814 C240.935278,28.4725647 241.276495,28.2591095 241.527807,27.9393158 C241.77912,27.6195221 241.904776,27.2394867 241.904776,26.7992096 L241.904776,24.5556641 C241.904776,24.115387 241.77912,23.7350769 241.527807,23.4147339 C241.276495,23.0943909 240.935278,22.8835907 240.504156,22.7823334 L238.464407,22.2879486 L238.315954,21.8906555 L239.435736,20.1071625 C239.673407,19.7319794 239.766653,19.3437042 239.715475,18.942337 C239.664297,18.5409698 239.478537,18.1785126 239.158194,17.8549652 L237.571356,16.2626343 C237.257971,15.947052 236.900068,15.7643356 236.497648,15.7144852 C236.095228,15.6646347 235.705328,15.7556152 235.327948,15.9874268 L233.534155,17.0927887 L233.120932,16.9373322 L232.642477,14.8838501 C232.542318,14.4527283 232.332319,14.1109619 232.01248,13.858551 C231.69264,13.6061401 231.311529,13.4799347 230.869146,13.4799347 Z M230.625525,15.2833405 C230.844885,15.2833405 230.973974,15.3877106 231.012793,15.5964508 L231.670324,18.3816223 C232.022619,18.4684143 232.355986,18.578186 232.670424,18.7109375 C232.984861,18.843689 233.274008,18.984726 233.537863,19.1340485 L235.94689,17.6495209 C236.1332,17.5387421 236.307791,17.5594788 236.470663,17.711731 L237.732168,18.9541473 C237.87966,19.1074066 237.892706,19.2801666 237.771307,19.4724274 L236.281973,21.8829651 C236.411062,22.1218262 236.544478,22.4020691 236.682219,22.7236938 C236.81996,23.0453186 236.932272,23.381958 237.019156,23.7336121 L239.790045,24.3927917 C239.998694,24.4364624 240.103018,24.5674286 240.103018,24.7856903 L240.103018,26.5603943 C240.103018,26.7797546 239.998694,26.9112701 239.790045,26.9549408 L237.010367,27.6053314 C236.92568,27.9463654 236.817785,28.2752914 236.686682,28.5921097 C236.555578,28.9089279 236.415365,29.1939545 236.266043,29.4471893 L237.764166,31.8665161 C237.884466,32.0539246 237.86849,32.2208252 237.716238,32.367218 L236.463522,33.6182861 C236.29479,33.78125 236.12258,33.8049622 235.94689,33.6894226 L233.530722,32.1889648 C233.266317,32.3511047 232.979574,32.4962616 232.670492,32.6244354 C232.36141,32.7526093 232.028021,32.8606415 231.670324,32.9485321 L231.012793,35.7177734 C230.973974,35.9275208 230.844885,36.0323944 230.625525,36.0323944 L228.812369,36.0323944 C228.594107,36.0323944 228.465521,35.9275208 228.426611,35.7177734 L227.769079,32.9485321 C227.42594,32.8638458 227.095663,32.7566147 226.77825,32.6268387 C226.460837,32.4970627 226.16915,32.3511047 225.903189,32.1889648 L223.480566,33.6925812 C223.304876,33.8092194 223.135046,33.7861023 222.971075,33.62323 L221.720007,32.3720245 C221.567755,32.2246246 221.548849,32.0572205 221.66329,31.869812 L223.164572,29.4471893 C223.023764,29.1907501 222.886892,28.9037094 222.753958,28.5860672 C222.621023,28.268425 222.511664,27.9409637 222.425879,27.6036835 L219.649496,26.9549408 C219.439657,26.9112701 219.334738,26.7797546 219.334738,26.5603943 L219.334738,24.7856903 C219.334738,24.5674286 219.439657,24.4364624 219.649496,24.3927917 L222.418738,23.7367706 C222.50553,23.3830109 222.617544,23.0455704 222.754782,22.7244492 C222.892019,22.4033279 223.023306,22.1228333 223.148642,21.8829651 L221.656149,19.4674835 C221.535849,19.2753143 221.551825,19.1031036 221.704077,18.9508514 L222.963934,17.7085724 C223.122046,17.5563202 223.294256,17.5350342 223.480566,17.6447144 L225.887121,19.12677 C226.138159,18.9817505 226.429846,18.8408966 226.762182,18.7042084 C227.094519,18.5675201 227.432531,18.4546814 227.77622,18.3656921 L228.426611,15.5964508 C228.465521,15.3877106 228.594107,15.2833405 228.812369,15.2833405 L230.625525,15.2833405 Z M229.723272,21.3565826 C228.934454,21.3565826 228.213247,21.551796 227.559652,21.9422226 C226.906057,22.3326492 226.382582,22.8519821 225.989226,23.5002213 C225.595869,24.1484604 225.399191,24.8664856 225.399191,25.6542969 C225.399191,26.4432068 225.595869,27.1644363 225.989226,27.8179855 C226.382582,28.4715347 226.906057,28.9937973 227.559652,29.3847733 C228.213247,29.7757492 228.934454,29.9712372 229.723272,29.9712372 C230.511084,29.9712372 231.231764,29.7769394 231.885313,29.3883438 C232.538862,28.9997482 233.05966,28.4786758 233.447706,27.8251266 C233.835753,27.1715775 234.029776,26.4479675 234.029776,25.6542969 C234.029776,24.8664856 233.835753,24.1484604 233.447706,23.5002213 C233.05966,22.8519821 232.538862,22.3326492 231.885313,21.9422226 C231.231764,21.551796 230.511084,21.3565826 229.723272,21.3565826 Z M229.723272,23.0705872 C230.191198,23.0705872 230.6201,23.1890335 231.009977,23.4259262 C231.399855,23.6628189 231.711752,23.9762039 231.945669,24.3660812 C232.179587,24.7559586 232.296545,25.1853638 232.296545,25.6542969 C232.296545,26.1279907 232.179587,26.5617905 231.945669,26.9556961 C231.711752,27.3496017 231.399855,27.664978 231.009977,27.901825 C230.6201,28.1386719 230.191198,28.2570953 229.723272,28.2570953 C229.24848,28.2570953 228.81468,28.1398621 228.421873,27.9053955 C228.029066,27.670929 227.715429,27.3558273 227.480963,26.9600906 C227.246496,26.5643539 227.129263,26.1290894 227.129263,25.6542969 C227.129263,25.1853638 227.246496,24.7556839 227.480963,24.3652573 C227.715429,23.9748306 228.029341,23.6614456 228.422697,23.4251022 C228.816054,23.1887589 229.249579,23.0705872 229.723272,23.0705872 Z" id="Combined-Shape"></path>
        </g>
    </g>
</svg>