<?xml version="1.0" encoding="UTF-8"?>
<svg width="31px" height="31px" viewBox="0 0 31 31" version="1.1" xmlns="http://www.w3.org/2000/svg" xmlns:xlink="http://www.w3.org/1999/xlink">
    <title>ss</title>
    <g id="Seedling" stroke="none" stroke-width="1" fill="none" fill-rule="evenodd">
        <g id="Tab-Bar-Unselected" transform="translate(-78.000000, -10.000000)" fill="#000000">
            <path d="M98.7444592,10 C102.310534,10 103.603679,10.3713024 104.907383,11.0685308 C106.211087,11.7657592 107.234241,12.7889135 107.931469,14.0926172 C108.628698,15.3963209 109,16.6894658 109,20.2555408 L109,30.7444592 C109,34.3105342 108.628698,35.6036791 107.931469,36.9073828 C107.234241,38.2110865 106.211087,39.2342408 104.907383,39.9314692 C103.603679,40.6286976 102.310534,41 98.7444592,41 L88.2555408,41 C84.6894658,41 83.3963209,40.6286976 82.0926172,39.9314692 C80.7889135,39.2342408 79.7657592,38.2110865 79.0685308,36.9073828 C78.3713024,35.6036791 78,34.3105342 78,30.7444592 L78,20.2555408 C78,16.6894658 78.3713024,15.3963209 79.0685308,14.0926172 C79.7657592,12.7889135 80.7889135,11.7657592 82.0926172,11.0685308 C83.3963209,10.3713024 84.6894658,10 88.2555408,10 L98.7444592,10 Z M93.7074088,14.0551707 C92.4373893,14.0551707 91.2247504,14.2521464 90.0694922,14.6460978 C88.914234,15.0400492 87.8543509,15.5943553 86.8898429,16.3090159 C85.9253348,17.0236766 85.0857733,17.8647029 84.3711585,18.8320948 C83.6565436,19.7994868 83.1034507,20.8605372 82.7118796,22.0152461 C82.3203086,23.1699549 82.124523,24.3828685 82.124523,25.6539866 C82.124523,26.9202525 82.3214988,28.13193 82.7154502,29.2890193 C83.1094016,30.4461085 83.6624945,31.508372 84.374729,32.4758097 C85.0869635,33.4432475 85.9267997,34.2828318 86.8942374,34.9945628 C87.8616751,35.7062938 88.9227484,36.2593867 90.0774573,36.6538417 C91.2321662,37.0482966 92.4450797,37.2455241 93.7161978,37.2455241 C94.9872245,37.2455241 96.2000922,37.0482966 97.3548011,36.6538417 C98.5095099,36.2593867 99.5705832,35.7062938 100.538021,34.9945628 C101.505459,34.2828318 102.346233,33.4432475 103.060345,32.4758097 C103.774456,31.508372 104.328739,30.4461085 104.723194,29.2890193 C105.117649,28.13193 105.314876,26.9202525 105.314876,25.6539866 C105.314876,24.3828685 105.117649,23.1699549 104.723194,22.0152461 C104.328739,20.8605372 103.774181,19.7994868 103.059521,18.8320948 C102.34486,17.8647029 101.504085,17.0236766 100.537197,16.3090159 C99.5703086,15.5943553 98.5080451,15.0400492 97.3504065,14.6460978 C96.192768,14.2521464 94.9784354,14.0551707 93.7074088,14.0551707 Z M93.7074088,16.0725352 C94.7714347,16.0725352 95.7828864,16.232844 96.7417639,16.5534617 C97.7006415,16.8740794 98.5793647,17.3265101 99.3779334,17.9107539 C100.176502,18.4949977 100.867908,19.1861293 101.452152,19.9841487 C102.036396,20.7821681 102.490017,21.6606166 102.813015,22.6194941 C103.136013,23.5783717 103.297512,24.5898692 103.297512,25.6539866 C103.302273,26.7132518 103.144367,27.7220485 102.823795,28.6803767 C102.503223,29.6387049 102.049625,30.5171763 101.463001,31.3157908 C100.876377,32.1144053 100.184032,32.8058116 99.3859671,33.3900096 C98.5879019,33.9742076 97.7094306,34.4278056 96.750553,34.7508036 C95.7916754,35.0738017 94.7802237,35.2353007 93.7161978,35.2353007 C92.6568412,35.2353007 91.647724,35.0738017 90.6888465,34.7508036 C89.7299689,34.4278056 88.8527106,33.9742076 88.0570716,33.3900096 C87.2614325,32.8058116 86.5703009,32.1144053 85.9836768,31.3157908 C85.3970526,30.5171763 84.9434317,29.6387049 84.6228141,28.6803767 C84.3021964,27.7220485 84.1418875,26.7132518 84.1418875,25.6539866 C84.1418875,24.5898692 84.3021964,23.5783717 84.6228141,22.6194941 C84.9434317,21.6606166 85.3958625,20.7821681 85.9801062,19.9841487 C86.56435,19.1861293 87.2542914,18.4949977 88.0499305,17.9107539 C88.8455695,17.3265101 89.7225531,16.8740794 90.6808814,16.5534617 C91.6392096,16.232844 92.6480521,16.0725352 93.7074088,16.0725352 Z M93.7074088,17.75619 C93.4876822,17.75619 93.3008689,17.8331401 93.1469687,17.9870402 C92.9930686,18.1409404 92.9161185,18.3277537 92.9161185,18.5474803 L92.9161185,25.3769938 L87.8290366,25.3769938 C87.6034507,25.3769938 87.4149436,25.453921 87.2635154,25.6077754 C87.1120871,25.7616298 87.036373,25.9489238 87.036373,26.1696574 C87.036373,26.3942363 87.1120871,26.5834529 87.2635154,26.7373072 C87.4149436,26.8911616 87.6034507,26.9680888 87.8290366,26.9680888 L93.7074088,26.9680888 C93.9329947,26.9680888 94.1227149,26.8911616 94.2765692,26.7373072 C94.4304236,26.5834529 94.5073508,26.3942363 94.5073508,26.1696574 L94.5073508,18.5474803 C94.5073508,18.3277537 94.4304236,18.1409404 94.2765692,17.9870402 C94.1227149,17.8331401 93.9329947,17.75619 93.7074088,17.75619 Z" id="Combined-Shape"></path>
        </g>
    </g>
</svg>