<?xml version="1.0" encoding="UTF-8"?>
<svg width="31px" height="31px" viewBox="0 0 31 31" version="1.1" xmlns="http://www.w3.org/2000/svg" xmlns:xlink="http://www.w3.org/1999/xlink">
    <title>Tab Bar Unselected 3</title>
    <g id="Seedling" stroke="none" stroke-width="1" fill="none" fill-rule="evenodd">
        <g id="Tab-Bar-Unselected" transform="translate(-146.000000, -10.000000)" fill="#000000">
            <path d="M166.744459,10 C170.310534,10 171.603679,10.3713024 172.907383,11.0685308 C174.211087,11.7657592 175.234241,12.7889135 175.931469,14.0926172 C176.628698,15.3963209 177,16.6894658 177,20.2555408 L177,30.7444592 C177,34.3105342 176.628698,35.6036791 175.931469,36.9073828 C175.234241,38.2110865 174.211087,39.2342408 172.907383,39.9314692 C171.603679,40.6286976 170.310534,41 166.744459,41 L156.255541,41 C152.689466,41 151.396321,40.6286976 150.092617,39.9314692 C148.788913,39.2342408 147.765759,38.2110865 147.068531,36.9073828 C146.371302,35.6036791 146,34.3105342 146,30.7444592 L146,20.2555408 C146,16.6894658 146.371302,15.3963209 147.068531,14.0926172 C147.765759,12.7889135 148.788913,11.7657592 150.092617,11.0685308 C151.396321,10.3713024 152.689466,10 156.255541,10 L166.744459,10 Z M155.520736,26.5249634 C154.831985,26.5249634 154.187179,26.6546707 153.586318,26.9140854 C152.985458,27.1735001 152.456626,27.5313339 151.999824,27.987587 C151.543021,28.44384 151.186378,28.9709549 150.929893,29.5689316 C150.673408,30.1669083 150.545165,30.8044128 150.545165,31.4814453 C150.545165,32.1643372 150.673408,32.8050232 150.929893,33.4035034 C151.186378,34.0019836 151.543021,34.5296249 151.999824,34.9864273 C152.456626,35.4432297 152.985458,35.8010635 153.586318,36.0599289 C154.187179,36.3187943 154.831985,36.4482269 155.520736,36.4482269 C156.198867,36.4482269 156.836921,36.3187943 157.434898,36.0599289 C158.032874,35.8010635 158.559989,35.4432297 159.016242,34.9864273 C159.472495,34.5296249 159.829139,34.0019836 160.086173,33.4035034 C160.343208,32.8050232 160.471725,32.1643372 160.471725,31.4814453 C160.471725,30.8044128 160.343208,30.1669083 160.086173,29.5689316 C159.829139,28.9709549 159.472495,28.44384 159.016242,27.987587 C158.559989,27.5313339 158.032874,27.1735001 157.434898,26.9140854 C156.836921,26.6546707 156.198867,26.5249634 155.520736,26.5249634 Z M167.943389,26.5249634 C167.254638,26.5249634 166.609832,26.6546707 166.008971,26.9140854 C165.408111,27.1735001 164.879279,27.5313339 164.422477,27.987587 C163.965675,28.44384 163.609031,28.9709549 163.352546,29.5689316 C163.096061,30.1669083 162.967818,30.8044128 162.967818,31.4814453 C162.967818,32.1643372 163.096061,32.8050232 163.352546,33.4035034 C163.609031,34.0019836 163.965675,34.5296249 164.422477,34.9864273 C164.879279,35.4432297 165.408111,35.8010635 166.008971,36.0599289 C166.609832,36.3187943 167.254638,36.4482269 167.943389,36.4482269 C168.62152,36.4482269 169.259551,36.3187943 169.857482,36.0599289 C170.455413,35.8010635 170.981315,35.4432297 171.435188,34.9864273 C171.88906,34.5296249 172.245704,34.0019836 172.505119,33.4035034 C172.764533,32.8050232 172.894241,32.1643372 172.894241,31.4814453 C172.894241,30.8044128 172.764533,30.1669083 172.505119,29.5689316 C172.245704,28.9709549 171.88906,28.44384 171.435188,27.987587 C170.981315,27.5313339 170.455413,27.1735001 169.857482,26.9140854 C169.259551,26.6546707 168.62152,26.5249634 167.943389,26.5249634 Z M155.519225,28.3140869 C156.102599,28.3140869 156.632232,28.4560623 157.108123,28.7400131 C157.584014,29.0239639 157.962745,29.4062881 158.244315,29.8869858 C158.525886,30.3676834 158.666671,30.9002228 158.666671,31.4846039 C158.666671,32.0775909 158.525886,32.6117554 158.244315,33.0870972 C157.962745,33.562439 157.584014,33.9391785 157.108123,34.2173157 C156.632232,34.4954529 156.102599,34.6345215 155.519225,34.6345215 C154.92514,34.6345215 154.388709,34.4954529 153.909934,34.2173157 C153.431159,33.9391785 153.052703,33.562439 152.774566,33.0870972 C152.496429,32.6117554 152.35736,32.0775909 152.35736,31.4846039 C152.35736,30.9002228 152.496429,30.3676834 152.774566,29.8869858 C153.052703,29.4062881 153.431159,29.0239639 153.909934,28.7400131 C154.388709,28.4560623 154.92514,28.3140869 155.519225,28.3140869 Z M167.941741,28.3140869 C168.525207,28.3140869 169.054862,28.4560623 169.530708,28.7400131 C170.006553,29.0239639 170.385284,29.4062881 170.6669,29.8869858 C170.948516,30.3676834 171.089324,30.9002228 171.089324,31.4846039 C171.089324,32.0775909 170.948516,32.6117554 170.6669,33.0870972 C170.385284,33.562439 170.006553,33.9391785 169.530708,34.2173157 C169.054862,34.4954529 168.525207,34.6345215 167.941741,34.6345215 C167.347747,34.6345215 166.811614,34.4954529 166.333343,34.2173157 C165.855071,33.9391785 165.476615,33.562439 165.197974,33.0870972 C164.919334,32.6117554 164.780013,32.0775909 164.780013,31.4846039 C164.780013,30.9002228 164.919334,30.3676834 165.197974,29.8869858 C165.476615,29.4062881 165.855071,29.0239639 166.333343,28.7400131 C166.811614,28.4560623 167.347747,28.3140869 167.941741,28.3140869 Z M155.520736,14.8577576 C154.831985,14.8577576 154.187179,14.9874878 153.586318,15.2469482 C152.985458,15.5064087 152.456626,15.8642654 151.999824,16.3205185 C151.543021,16.7767715 151.186378,17.3038635 150.929893,17.9017944 C150.673408,18.4997253 150.545165,19.1377563 150.545165,19.8158875 C150.545165,20.4976807 150.673408,21.1378174 150.929893,21.7362976 C151.186378,22.3347778 151.543021,22.8624191 151.999824,23.3192215 C152.456626,23.7760239 152.985458,24.1338806 153.586318,24.3927917 C154.187179,24.6517029 154.831985,24.7811584 155.520736,24.7811584 C156.198867,24.7811584 156.836921,24.6517029 157.434898,24.3927917 C158.032874,24.1338806 158.559989,23.7760239 159.016242,23.3192215 C159.472495,22.8624191 159.829139,22.3347778 160.086173,21.7362976 C160.343208,21.1378174 160.471725,20.4976807 160.471725,19.8158875 C160.471725,19.1377563 160.343208,18.4997253 160.086173,17.9017944 C159.829139,17.3038635 159.472495,16.7767715 159.016242,16.3205185 C158.559989,15.8642654 158.032874,15.5064087 157.434898,15.2469482 C156.836921,14.9874878 156.198867,14.8577576 155.520736,14.8577576 Z M167.943389,14.8577576 C167.254638,14.8577576 166.609832,14.9874878 166.008971,15.2469482 C165.408111,15.5064087 164.879279,15.8642654 164.422477,16.3205185 C163.965675,16.7767715 163.609031,17.3038635 163.352546,17.9017944 C163.096061,18.4997253 162.967818,19.1377563 162.967818,19.8158875 C162.967818,20.4976807 163.096061,21.1378174 163.352546,21.7362976 C163.609031,22.3347778 163.965675,22.8624191 164.422477,23.3192215 C164.879279,23.7760239 165.408111,24.1338806 166.008971,24.3927917 C166.609832,24.6517029 167.254638,24.7811584 167.943389,24.7811584 C168.62152,24.7811584 169.259551,24.6517029 169.857482,24.3927917 C170.455413,24.1338806 170.981315,23.7760239 171.435188,23.3192215 C171.88906,22.8624191 172.245704,22.3347778 172.505119,21.7362976 C172.764533,21.1378174 172.894241,20.4976807 172.894241,19.8158875 C172.894241,19.1377563 172.764533,18.4997253 172.505119,17.9017944 C172.245704,17.3038635 171.88906,16.7767715 171.435188,16.3205185 C170.981315,15.8642654 170.455413,15.5064087 169.857482,15.2469482 C169.259551,14.9874878 168.62152,14.8577576 167.943389,14.8577576 Z M155.519225,16.6468811 C156.102599,16.6468811 156.632232,16.7888565 157.108123,17.0728073 C157.584014,17.3567581 157.962745,17.7390823 158.244315,18.21978 C158.525886,18.7004776 158.666671,19.2330627 158.666671,19.8175354 C158.666671,20.4104309 158.525886,20.9445496 158.244315,21.4198914 C157.962745,21.8952332 157.584014,22.2719727 157.108123,22.5501099 C156.632232,22.8282471 156.102599,22.9673157 155.519225,22.9673157 C154.92514,22.9673157 154.388709,22.8282471 153.909934,22.5501099 C153.431159,22.2719727 153.052703,21.8952332 152.774566,21.4198914 C152.496429,20.9445496 152.35736,20.4104309 152.35736,19.8175354 C152.35736,19.2330627 152.496429,18.7004776 152.774566,18.21978 C153.052703,17.7390823 153.431159,17.3567581 153.909934,17.0728073 C154.388709,16.7888565 154.92514,16.6468811 155.519225,16.6468811 Z M167.941741,16.6468811 C168.525207,16.6468811 169.054862,16.7888565 169.530708,17.0728073 C170.006553,17.3567581 170.385284,17.7390823 170.6669,18.21978 C170.948516,18.7004776 171.089324,19.2330627 171.089324,19.8175354 C171.089324,20.4104309 170.948516,20.9445496 170.6669,21.4198914 C170.385284,21.8952332 170.006553,22.2719727 169.530708,22.5501099 C169.054862,22.8282471 168.525207,22.9673157 167.941741,22.9673157 C167.347747,22.9673157 166.811614,22.8282471 166.333343,22.5501099 C165.855071,22.2719727 165.476615,21.8952332 165.197974,21.4198914 C164.919334,20.9445496 164.780013,20.4104309 164.780013,19.8175354 C164.780013,19.2330627 164.919334,18.7004776 165.197974,18.21978 C165.476615,17.7390823 165.855071,17.3567581 166.333343,17.0728073 C166.811614,16.7888565 167.347747,16.6468811 167.941741,16.6468811 Z" id="Combined-Shape"></path>
        </g>
    </g>
</svg>