<?xml version="1.0" encoding="UTF-8"?>
<svg width="31px" height="31px" viewBox="0 0 31 31" version="1.1" xmlns="http://www.w3.org/2000/svg" xmlns:xlink="http://www.w3.org/1999/xlink">
    <title>Tab Bar Unselected 2</title>
    <g id="Seedling" stroke="none" stroke-width="1" fill="none" fill-rule="evenodd">
        <g id="Tab-Bar-Unselected" transform="translate(-10.000000, -10.000000)" fill="#000000">
            <path d="M30.7444592,10 C34.3105342,10 35.6036791,10.3713024 36.9073828,11.0685308 C38.2110865,11.7657592 39.2342408,12.7889135 39.9314692,14.0926172 C40.6286976,15.3963209 41,16.6894658 41,20.2555408 L41,30.7444592 C41,34.3105342 40.6286976,35.6036791 39.9314692,36.9073828 C39.2342408,38.2110865 38.2110865,39.2342408 36.9073828,39.9314692 C35.6036791,40.6286976 34.3105342,41 30.7444592,41 L20.2555408,41 C16.6894658,41 15.3963209,40.6286976 14.0926172,39.9314692 C12.7889135,39.2342408 11.7657592,38.2110865 11.0685308,36.9073828 C10.3713024,35.6036791 10,34.3105342 10,30.7444592 L10,20.2555408 C10,16.6894658 10.3713024,15.3963209 11.0685308,14.0926172 C11.7657592,12.7889135 12.7889135,11.7657592 14.0926172,11.0685308 C15.3963209,10.3713024 16.6894658,10 20.2555408,10 L30.7444592,10 Z M17.819931,27.3287506 C17.142807,27.3287506 16.5065613,27.4571533 15.9111938,27.7139587 C15.3158264,27.9707642 14.7921219,28.3263779 14.3400803,28.7807999 C13.8880386,29.2352219 13.5336151,29.7589264 13.2768097,30.3519135 C13.0200043,30.9449005 12.8916016,31.5794067 12.8916016,32.2554321 C12.8916016,32.9267883 13.0200043,33.5601273 13.2768097,34.1554489 C13.5336151,34.7507706 13.8892288,35.2756653 14.3436508,35.7301331 C14.7980728,36.1846008 15.3220291,36.5404892 15.9155197,36.7977982 C16.5090103,37.0551071 17.1438141,37.1837616 17.819931,37.1837616 C18.4911957,37.1837616 19.1233215,37.0551071 19.7163086,36.7977982 C20.3092957,36.5404892 20.8330002,36.1846008 21.2874222,35.7301331 C21.7418442,35.2756653 22.0977325,34.7519608 22.3550873,34.1590195 C22.612442,33.5660782 22.7411194,32.9315491 22.7411194,32.2554321 C22.7411194,31.5794067 22.612442,30.9437103 22.3550873,30.3483429 C22.0977325,29.7529755 21.7418442,29.2292709 21.2874222,28.7772293 C20.8330002,28.3251877 20.3092957,27.9707642 19.7163086,27.7139587 C19.1233215,27.4571533 18.4911957,27.3287506 17.819931,27.3287506 Z M17.819931,29.0161133 C18.4002838,29.0161133 18.9356613,29.1647949 19.4260635,29.4621582 C19.9164658,29.7595215 20.3091354,30.1531296 20.6040726,30.6429825 C20.8990097,31.1328354 21.0464783,31.6703186 21.0464783,32.2554321 C21.0464783,32.8406372 20.8990097,33.378418 20.6040726,33.8687744 C20.3091354,34.3591309 19.9164658,34.7518005 19.4260635,35.0467834 C18.9356613,35.3417664 18.4002838,35.4892578 17.819931,35.4892578 C17.2299652,35.4892578 16.6909943,35.3417664 16.2030182,35.0467834 C15.7150421,34.7518005 15.3235626,34.3591309 15.0285797,33.8687744 C14.7335968,33.378418 14.5861053,32.8406372 14.5861053,32.2554321 C14.5861053,31.6703186 14.7335968,31.1328354 15.0285797,30.6429825 C15.3235626,30.1531296 15.7162552,29.7595215 16.2066574,29.4621582 C16.6970596,29.1647949 17.2348175,29.0161133 17.819931,29.0161133 Z M37.7191925,31.3931427 L26.238205,31.3931427 C25.9944916,31.3931427 25.7883606,31.4786072 25.619812,31.6495361 C25.4512634,31.8204651 25.3669891,32.027832 25.3669891,32.271637 C25.3669891,32.516449 25.4512634,32.7231293 25.619812,32.8916779 C25.7883606,33.0602264 25.9944916,33.1445007 26.238205,33.1445007 L37.7191925,33.1445007 C37.9687653,33.1445007 38.1790161,33.0602264 38.3499451,32.8916779 C38.520874,32.7231293 38.6063385,32.516449 38.6063385,32.271637 C38.6063385,32.027832 38.520874,31.8204651 38.3499451,31.6495361 C38.1790161,31.4786072 37.9687653,31.3931427 37.7191925,31.3931427 Z M17.819931,14.151062 C17.142807,14.151062 16.5065613,14.2794418 15.9111938,14.5362015 C15.3158264,14.7929611 14.7921219,15.1488266 14.3400803,15.6037979 C13.8880386,16.0587692 13.5336151,16.5839386 13.2768097,17.179306 C13.0200043,17.7746735 12.8916016,18.4104156 12.8916016,19.0865326 C12.8916016,19.7577972 13.0200043,20.3899231 13.2768097,20.9829102 C13.5336151,21.5758972 13.8892288,22.0981369 14.3436508,22.5496292 C14.7980728,23.0011215 15.3220291,23.355545 15.9155197,23.6128998 C16.5090103,23.8702545 17.1438141,23.9989319 17.819931,23.9989319 C18.4911957,23.9989319 19.1230469,23.8702545 19.7154846,23.6128998 C20.3079224,23.355545 20.8316269,23.0011215 21.2865982,22.5496292 C21.7415695,22.0981369 22.0977325,21.5758972 22.3550873,20.9829102 C22.612442,20.3899231 22.7411194,19.7577972 22.7411194,19.0865326 C22.7411194,18.4104156 22.612442,17.7746735 22.3550873,17.179306 C22.0977325,16.5839386 21.7418442,16.0587692 21.2874222,15.6037979 C20.8330002,15.1488266 20.3092957,14.7929611 19.7163086,14.5362015 C19.1233215,14.2794418 18.4911957,14.151062 17.819931,14.151062 Z M19.8175201,16.6331482 C19.9769135,16.6331482 20.1156387,16.6869812 20.233696,16.7946472 C20.3517532,16.9023132 20.4107819,17.0305328 20.4107819,17.179306 C20.4107819,17.321579 20.359375,17.4697113 20.2565613,17.623703 L17.797821,21.441452 C17.6571045,21.6556854 17.4673615,21.7604218 17.2285919,21.755661 C17.1134186,21.7604218 17.012001,21.7348328 16.9243393,21.678894 C16.8366776,21.6229553 16.7555389,21.5488892 16.6809235,21.4566956 L15.3466339,19.8779602 C15.2480316,19.7633362 15.1987305,19.6199646 15.1987305,19.4478455 C15.1987305,19.2863464 15.254303,19.1488342 15.365448,19.0353088 C15.476593,18.9217834 15.6118622,18.8650208 15.7712555,18.8650208 C15.8735199,18.8650208 15.9640884,18.8866043 16.0429611,18.9297714 C16.1218338,18.9729385 16.1961975,19.0376892 16.2660522,19.1240234 L17.2126617,20.2797852 L19.2993774,16.9594421 C19.4321289,16.7419128 19.6048431,16.6331482 19.8175201,16.6331482 Z M37.7191925,18.2151794 L26.238205,18.2151794 C25.9944916,18.2151794 25.7883606,18.2994537 25.619812,18.4680023 C25.4512634,18.6365509 25.3669891,18.8427277 25.3669891,19.0865326 C25.3669891,19.3313446 25.4512634,19.539238 25.619812,19.7102127 C25.7883606,19.8811874 25.9944916,19.9666748 26.238205,19.9666748 L37.7191925,19.9666748 C37.9687653,19.9666748 38.1790161,19.8811874 38.3499451,19.7102127 C38.520874,19.539238 38.6063385,19.3313446 38.6063385,19.0865326 C38.6063385,18.8427277 38.520874,18.6365509 38.3499451,18.4680023 C38.1790161,18.2994537 37.9687653,18.2151794 37.7191925,18.2151794 Z" id="Combined-Shape"></path>
        </g>
    </g>
</svg>